# xmcd
#
# Track frame offsets: 
#        150
#        10442
#        25053
#        38933
#        54000
#        68379
#        85177
#        98489
#        111303
#        123378
#        133650
#        145732
#        156981
#        170140
#        182394
#        193786
#        204738
#        217016
#        230749
#        241532
#        254963
#        268588
#        281860
#        296201
#        308163
#        320886
#
# Disc length: 4415 seconds
#
# Revision: 0
# Processed by: cddbd v1.5.2PL0 Copyright (c) Steve Scherf et al.
# Submitted via: ExactAudioCopyFreeDBPlugin 1.0
#
DISCID=8b113d1a
DTITLE=Various Artist - No More Doggin': The RPM Records Story Vol. 1
DTITLE=1950-1953 [CD1]
DYEAR=2014
DGENRE=R&B
TTITLE0=Clyde Hurley and His Orchestra, vocal by Adele Francis - Alabamy
TTITLE0=Bound
TTITLE1=Austin McCoy - Happy Payday Part 1
TTITLE2=Luke Jones and His Orchestra - Mama Oh Mama
TTITLE3=B.B. King - B.B. Boogie
TTITLE4=Memphis Eddie - Good Time Woman
TTITLE5=B.B. King - The Other Night Blues
TTITLE6=Gene Phillips and His Rhythm Aces - Big Fat Mama
TTITLE7=The Nic Nacs - Found Me A Sugar Daddy
TTITLE8=Junior Blues - Whiskey Head Woman
TTITLE9=Mickey Champion - Good For Nothin' Man
TTITLE10=Rosco Gordon - Rosco's Boogie
TTITLE11=B.B. King - She's Dynamite
TTITLE12=Rosco Gordon - Saddled The Cow (And Milked The Horse)
TTITLE13=Jimmy Nelson and The Peter Rabbit Trio - T-99 Blues (Little Bit
TTITLE13=tie Gal's Blues)
TTITLE14=Alexander Moore - If i Lose You Woman
TTITLE15=Willie Nix - Try Me One More Time
TTITLE16=Jimmy Nelson and The Peter Rabbit Trio - Fine Little Honey Drip
TTITLE16=per
TTITLE17=Howling Wolf - Riding In The Moonlight
TTITLE18=Lightnin' Hopkins - Bad Luck And Trouble
TTITLE19=Mumbles - Black Gal
TTITLE20=B.B. King - 3 O'Clock Blues
TTITLE21=The Nic Nacs - Gonna Have A Merry Xmas
TTITLE22=Rosco Gordon - Booted
TTITLE23=Lightnin' Hopkins - Jake Head Boogie
TTITLE24=Howling Wolf - I Want Your Picture
TTITLE25=B.B. King - Fine Lookin' Woman
EXTD=
EXTT0=
EXTT1=
EXTT2=
EXTT3=
EXTT4=
EXTT5=
EXTT6=
EXTT7=
EXTT8=
EXTT9=
EXTT10=
EXTT11=
EXTT12=
EXTT13=
EXTT14=
EXTT15=
EXTT16=
EXTT17=
EXTT18=
EXTT19=
EXTT20=
EXTT21=
EXTT22=
EXTT23=
EXTT24=
EXTT25=
PLAYORDER=
